<?xml version="1.0" encoding="utf-8"?>
<!-- Generator: Adobe Illustrator 27.5.0, SVG Export Plug-In . SVG Version: 6.00 Build 0)  -->
<svg version="1.1" id="LOGO" xmlns="http://www.w3.org/2000/svg" xmlns:xlink="http://www.w3.org/1999/xlink" x="0px" y="0px"
    viewBox="50 50 300 300" style="enable-background:new 50 50 300 300;" xml:space="preserve">
    <rect id="BACKGROUND" style="fill:#FFFFFF;" x="50" y="50" width="400" height="400"/>
<g id="OBJECT">
	<linearGradient id="SVGID_1_" gradientUnits="userSpaceOnUse" x1="360.6097" y1="261.2486" x2="305.6378" y2="259.3692">
		<stop  offset="0.0053" style="stop-color:#38bdf8"/>
		<stop  offset="1" style="stop-color:#0369a1"/>
	</linearGradient>
	<path style="fill:url(#SVGID_1_);" d="M312.636,213.462c0,0-24.737,45.53,3.621,92.109h-8.983c0,0-15.826-11.276-18.645-44.165
		C285.811,228.517,312.636,213.462,312.636,213.462z"/>
	
		<linearGradient id="SVGID_00000160166382944975851250000003259086760814987174_" gradientUnits="userSpaceOnUse" x1="256.2956" y1="349.901" x2="210.8889" y2="276.7215">
		<stop  offset="0.0053" style="stop-color:#38bdf8"/>
		<stop  offset="1" style="stop-color:#0369a1"/>
	</linearGradient>
	<path style="fill:url(#SVGID_00000160166382944975851250000003259086760814987174_);" d="M238.461,246.752
		c0,0-27.92,12.765-35.343,58.819h-20.497C182.622,305.571,197.22,258.409,238.461,246.752z"/>
	
		<linearGradient id="SVGID_00000174570446426612246960000006428173589826122926_" gradientUnits="userSpaceOnUse" x1="250" y1="68.4182" x2="250" y2="315.2834">
		<stop  offset="0.0053" style="stop-color:#38bdf8"/>
		<stop  offset="1" style="stop-color:#0369a1"/>
	</linearGradient>
	<path style="fill:url(#SVGID_00000174570446426612246960000006428173589826122926_);" d="M322.886,120.751l-0.78-3.117
		c-0.274-1.918-2.117-3.201-4.011-2.793l-10.386,2.24l-3.159-1.149c-1.528-0.556-3.182-0.669-4.771-0.326l-8.879,1.915
		c-3.524,0.76-7.187-0.245-9.861-2.662c-3.17-2.865-6.598-5.231-9.055-6.63c-12.499-7.173-28.406-7.374-41.526-2.36
		c-18.035,6.367-29.671,25.63-28.323,44.443c1.051,31.208,41.655,45.72,60.686,20.33c5.372-7.087,6.817-16.555,5.062-25.163
		c-0.135-0.662-0.814-1.066-1.468-0.895c-0.011,0.003-0.021,0.005-0.032,0.008c-0.532,0.14-0.888,0.629-0.877,1.179
		c0.277,14.488-8.083,25.952-21.633,28.671c-7.634,1.358-15.512-0.837-21.653-5.495c-11.668-8.616-11.23-27.585-3.551-39.096
		c3.131-4.983,7.489-8.793,12.492-11.421c6.366-3.344,13.681-4.492,20.815-3.597c19.906,2.497,26.041,19.662,27.902,28.743
		c4.045,22.482-3.605,35.734-16.142,46.526c0-0.001,0.001-0.007,0.001-0.007s-0.029,0.028-0.084,0.078
		c-0.941,0.807-1.908,1.602-2.9,2.385c-7.933,6.036-31.116,20.419-61.933,10.717c0,0,4.14,12.281,26.186,13.454
		c-3.927,2.855-7.797,5.912-11.505,9.278c-35.993,32.678-36.467,79.564-36.467,79.564h8.051
		c18.944-68.671,90.456-65.356,90.456-65.356c-2.841,40.729,22.733,65.356,22.733,65.356h8.998
		c-38.124-51.503,16.102-85.957,11.366-119.819c-1.401-10.015-5.804-17.619-10.159-22.917c-3.894-4.736-4.761-11.072-2.685-16.55
		c6.95,10.308,14.857,7.263,14.857,7.263c-12.077-10.656-3.877-21.641-3.877-21.641l0,0l4.346-5.085
		C322.556,125.146,323.198,122.934,322.886,120.751z"/>
	
		<linearGradient id="SVGID_00000126309136184570054930000012081959162898231442_" gradientUnits="userSpaceOnUse" x1="296.582" y1="254.8857" x2="283.8962" y2="221.0569">
		<stop  offset="0.0053" style="stop-color:#38bdf8;stop-opacity:0"/>
		<stop  offset="1" style="stop-color:#0369a1"/>
	</linearGradient>
	<path style="fill:url(#SVGID_00000126309136184570054930000012081959162898231442_);" d="M306.988,225.142
		c-4.528,9.11-9.176,18.637-11.621,28.833h-0.011c-1.655,0.23-11.665,2.127-19.328,3.596c-0.691-5.394-0.91-11.193-0.482-17.355
		C275.547,240.216,296.212,243.593,306.988,225.142z"/>
	
		<linearGradient id="SVGID_00000023970718568660649550000005741659794604004237_" gradientUnits="userSpaceOnUse" x1="239.9288" y1="226.3929" x2="181.7857" y2="188.3355">
		<stop  offset="0.0053" style="stop-color:#38bdf8;stop-opacity:0"/>
		<stop  offset="1" style="stop-color:#0369a1"/>
	</linearGradient>
	<path style="fill:url(#SVGID_00000023970718568660649550000005741659794604004237_);" d="M229.666,212.546l-4.659,4.188
		c-22.047-1.173-26.18-13.463-26.18-13.463S211.336,215.714,229.666,212.546z"/>
	
		<linearGradient id="SVGID_00000042695238556195678820000001324537163846527896_" gradientUnits="userSpaceOnUse" x1="329.3287" y1="152.7967" x2="299.3762" y2="127.4252">
		<stop  offset="0.0053" style="stop-color:#38bdf8"/>
		<stop  offset="1" style="stop-color:#0369a1"/>
	</linearGradient>
	<path style="fill:url(#SVGID_00000042695238556195678820000001324537163846527896_);" d="M320.648,153.554
		c-8.617-1.447-11.577-11.489-10.645-14.307c0.943-2.817,6.775-7.345,6.775-7.345S308.578,142.898,320.648,153.554z"/>
</g>

</svg>
