 <svg  version="1.0" xmlns="http://www.w3.org/2000/svg"  width="1536.000000pt" height="1536.000000pt" viewBox="0 0 1536.000000 1536.000000"  preserveAspectRatio="xMidYMid meet">  <g transform="translate(0.000000,1536.000000) scale(0.100000,-0.100000)" fill="#1d4bd8" stroke="none"> <path d="M1945 13778 c-3 -7 -4 -2342 -3 -5188 l3 -5175 1538 -3 c1226 -2 1537 0 1537 10 0 7 1 867 2 1910 3 1931 5 2007 38 1877 6 -24 15 -55 19 -69 5 -14 16 -50 24 -80 9 -30 35 -120 58 -200 22 -80 45 -159 49 -176 4 -18 10 -37 14 -43 4 -6 14 -35 22 -63 8 -29 21 -75 30 -103 8 -27 19 -63 23 -80 10 -35 82 -287 113 -390 11 -38 30 -101 42 -140 29 -91 51 -162 77 -255 12 -41 28 -85 35 -97 l14 -23 1160 0 1160 0 14 23 c7 12 24 58 36 102 13 44 36 121 52 170 15 50 36 115 45 145 8 30 19 66 24 80 4 14 14 50 23 80 23 81 111 379 141 477 29 98 46 153 60 200 52 181 97 336 111 383 27 92 54 146 65 129 5 -8 9 -792 9 -1929 0 -1053 0 -1921 0 -1928 0 -10 309 -12 1528 -10 l1527 3 0 5185 0 5185 -1749 3 c-963 1 -1753 -1 -1757 -5 -7 -7 -55 -166 -144 -473 -7 -25 -24 -79 -38 -120 -40 -125 -76 -240 -102 -335 -14 -49 -29 -101 -34 -115 -4 -14 -16 -52 -26 -85 -10 -33 -29 -94 -43 -135 -14 -41 -29 -88 -33 -105 -8 -33 -13 -49 -93 -320 -31 -104 -62 -208 -70 -230 -7 -22 -21 -67 -31 -100 -10 -33 -29 -91 -41 -130 -28 -90 -66 -215 -99 -335 -15 -52 -33 -111 -40 -130 -7 -19 -21 -62 -30 -95 -10 -33 -21 -69 -26 -80 -4 -11 -17 -54 -29 -95 -27 -93 -34 -118 -59 -200 -10 -36 -26 -90 -35 -120 -41 -141 -49 -167 -61 -200 -19 -55 -37 -112 -46 -145 -4 -16 -31 -106 -59 -200 -28 -93 -58 -192 -66 -220 -8 -27 -19 -63 -24 -80 -5 -16 -15 -51 -23 -77 -24 -88 -50 -88 -74 0 -17 59 -18 63 -98 327 -82 273 -94 312 -104 351 -5 18 -11 37 -15 43 -4 6 -14 35 -22 63 -19 68 -25 87 -69 238 -20 69 -41 141 -47 160 -5 19 -20 67 -32 105 -12 39 -31 97 -41 130 -10 33 -28 92 -41 130 -12 39 -30 97 -39 130 -20 76 -60 209 -89 300 -12 39 -31 97 -41 130 -9 33 -26 85 -35 115 -10 30 -39 127 -64 215 -26 88 -51 171 -56 185 -4 14 -16 52 -25 85 -10 33 -30 98 -45 145 -31 95 -85 272 -95 310 -4 14 -17 59 -30 100 -12 41 -30 102 -40 135 -9 33 -29 98 -44 145 -15 47 -36 112 -45 145 -10 33 -22 71 -27 85 -5 14 -29 97 -54 184 -25 87 -48 163 -51 167 -3 5 -788 9 -1755 9 -1390 0 -1751 -3 -1754 -12z m3240 -395 c9 -21 20 -54 25 -73 5 -19 16 -59 24 -87 20 -67 37 -124 70 -238 37 -127 87 -286 97 -310 4 -11 17 -54 29 -95 12 -41 25 -86 30 -100 5 -14 18 -59 30 -100 21 -73 34 -117 67 -230 9 -30 22 -69 30 -87 7 -17 13 -37 13 -44 0 -7 6 -31 14 -54 16 -45 59 -187 106 -345 37 -128 59 -202 75 -255 7 -22 21 -67 31 -100 10 -33 21 -64 25 -70 4 -5 10 -26 14 -45 4 -19 18 -69 31 -110 24 -75 60 -196 95 -322 10 -37 34 -113 53 -170 32 -98 60 -189 105 -343 11 -38 37 -124 57 -190 20 -66 42 -140 49 -165 8 -25 22 -72 33 -105 11 -33 29 -91 40 -130 12 -38 35 -117 52 -175 17 -58 41 -139 54 -180 13 -41 34 -109 46 -150 12 -41 26 -84 31 -95 4 -11 11 -31 14 -45 4 -14 17 -59 29 -100 13 -41 33 -111 45 -155 13 -44 29 -98 36 -120 7 -22 21 -67 30 -100 10 -33 24 -74 32 -92 7 -17 13 -38 13 -47 0 -9 9 -33 20 -53 20 -37 20 -57 20 -1216 0 -793 -3 -1185 -10 -1198 -10 -18 -26 -19 -451 -19 l-439 0 -15 33 c-7 17 -30 88 -49 157 -20 69 -42 145 -50 170 -7 25 -21 72 -31 105 -10 33 -21 67 -26 76 -4 9 -11 34 -15 55 -3 22 -10 44 -14 49 -4 6 -12 30 -18 55 -9 40 -99 354 -136 470 -7 25 -22 72 -31 105 -10 33 -21 69 -26 80 -4 11 -30 101 -58 200 -48 170 -67 236 -96 330 -7 22 -21 67 -30 100 -10 33 -21 69 -26 80 -8 21 -15 45 -74 255 -35 126 -58 202 -81 275 -38 121 -102 337 -158 535 -20 69 -42 145 -50 170 -7 25 -21 72 -31 105 -10 33 -21 67 -25 75 -4 9 -11 31 -14 50 -4 19 -11 44 -16 55 -5 11 -25 81 -45 155 -20 74 -40 145 -45 158 -11 25 -35 29 -44 7 -3 -9 -6 -1357 -6 -2996 0 -1640 -3 -2985 -6 -2990 -9 -15 -2297 -12 -2312 3 -16 16 -18 9579 -2 9609 11 19 37 19 1430 19 l1420 0 15 -37z"/> </g> </svg> 